#N canvas 570 52 918 681 12;
#X obj 590 704 dac~ 1 2;
#N canvas 0 50 450 250 (subpatch) 0;
#X array channelL 20929 float 2;
#X coords 0 1 20929 -1 200 140 1;
#X restore 411 47 graph;
#N canvas 0 50 450 250 (subpatch) 0;
#X array channelR 20929 float 2;
#X coords 0 1 20929 -1 200 140 1;
#X restore 403 219 graph;
#X obj 34 15 bng 15 250 50 0 empty empty empty 17 7 0 10 #fcfcfc #000000
#000000;
#X msg 32 120 read -resize \$1 channelL channelR;
#X obj 27 49 openpanel;
#X obj 32 142 soundfiler;
#X obj 168 162 unpack;
#X obj 172 210 s sampleRate;
#X obj 24 509 tabread4~ channelL;
#X obj 219 511 tabread4~ channelR;
#X obj 28 468 line~;
#X obj 163 280 oscparse;
#X obj 163 304 list trim;
#X obj 128 345 route amp;
#X obj 254 355 route samppos;
#X obj 25 383 *;
#X obj 183 392 / 500;
#X obj 180 452 / 500;
#X obj 165 587 line~;
#X obj 55 554 *~;
#X obj 598 588 *~, f 6;
#X obj 166 256 netreceive -u -b 9000;
#X msg 22 432 \$1 100;
#X msg 173 534 \$1 100;
#X obj 95 426 print;
#X obj 442 434 osc~ 0.001;
#X obj 439 491 +~;
#X obj 597 646 *~ 0.75;
#X connect 3 0 5 0;
#X connect 4 0 6 0;
#X connect 5 0 4 0;
#X connect 6 0 16 1;
#X connect 6 1 7 0;
#X connect 7 0 8 0;
#X connect 9 0 20 0;
#X connect 10 0 21 0;
#X connect 11 0 27 1;
#X connect 12 0 13 0;
#X connect 13 0 14 0;
#X connect 13 0 15 0;
#X connect 14 0 18 0;
#X connect 15 0 17 0;
#X connect 16 0 23 0;
#X connect 16 0 25 0;
#X connect 17 0 16 0;
#X connect 18 0 24 0;
#X connect 19 0 20 1;
#X connect 19 0 21 1;
#X connect 21 0 28 0;
#X connect 22 0 12 0;
#X connect 23 0 11 0;
#X connect 24 0 19 0;
#X connect 26 0 27 0;
#X connect 27 0 10 0;
#X connect 27 0 9 0;
#X connect 28 0 0 0;
#X connect 28 0 0 1;
